# xmcd CD database file
#
# Track frame offsets:
#	150
#	19786
#	42656
#	63362
#	77060
#	97839
#	117247
#	127275
#	150974
#	174064
#	193411
#	213214
#
# Disc length: 3602 seconds
#
# Revision: 1
# Processed by: cddbd v1.5.2PL0 Copyright (c) Steve Scherf et al.
# Submitted via: CDex 1.40Beta8
#
DISCID=9a0e100c
DTITLE=Harris and Ryden - Run
DYEAR=2002
DGENRE=Country
TTITLE0=This Hard Town
TTITLE1=Southern Plains
TTITLE2=Lazy Afternoon
TTITLE3=Beggar's Dimes
TTITLE4=Cold Wyoming Snow
TTITLE5=The Eyes of a Friend
TTITLE6=Strange New Love
TTITLE7=Mogollon
TTITLE8=Annie Belle
TTITLE9=Run
TTITLE10=Careless
TTITLE11=Shiny Cars
EXTD=YEAR: 2002 ID3G: 2
EXTT0=
EXTT1=
EXTT2=
EXTT3=
EXTT4=
EXTT5=
EXTT6=
EXTT7=
EXTT8=
EXTT9=
EXTT10=
EXTT11=
PLAYORDER=
